<svg height="512pt" viewBox="0 0 512 512" width="512pt" xmlns="http://www.w3.org/2000/svg"><linearGradient id="prefix__a" gradientUnits="userSpaceOnUse" x1="0" x2="512" y1="256" y2="256"><stop offset="0" stop-color="#00f38d"/><stop offset="1" stop-color="#009eff"/></linearGradient><path d="M512 256c0 141.387-114.613 256-256 256S0 397.387 0 256 114.613 0 256 0s256 114.613 256 256zm0 0" fill="url(#prefix__a)"/><path d="M368.188 379.496c-54.141 0-98.188-44.047-98.188-98.187V138.102l45.832 45.832 19.8-19.797L256 84.504l-79.633 79.633 19.801 19.797L242 138.102v143.207c0 54.14-44.047 98.183-98.187 98.183H96.445v28h47.368c48.792 0 91.199-27.836 112.187-68.457 20.988 40.621 63.398 68.457 112.188 68.457h47.367v-28h-47.367zm0 0" fill="#fff"/></svg>