<svg xmlns="http://www.w3.org/2000/svg" width="462.369" height="462.369">
	<path
		d="M0 371.825v-59.007c61.959 0 92.905-30.694 122.837-60.378 7.288-7.235 14.665-14.518 22.419-21.256-7.755-6.727-15.131-14.014-22.419-21.255C92.905 180.249 61.959 149.551 0 149.551V90.544c86.262 0 131.42 44.789 164.381 77.496 19.55 19.394 32.116 31.227 45.521 33.52 1.599-.085 3.166-.192 4.812-.192v.626h141.882L332.35 140.64a4.902 4.902 0 011.619-5.733 4.9 4.9 0 015.946.026l120.544 92.672a4.925 4.925 0 011.909 3.898 4.916 4.916 0 01-1.909 3.896l-120.544 92.675a4.926 4.926 0 01-2.991 1.017 4.89 4.89 0 01-2.955-.993c-1.773-1.324-2.423-3.677-1.619-5.733L356.596 261H214.54c-.047 0-.092-.012-.133-.012-1.531 0-3.015-.095-4.504-.172-13.406 2.287-25.966 14.121-45.521 33.52C131.42 327.034 86.262 371.825 0 371.825z" />
</svg>